<svg width="60" height="59" viewBox="0 0 60 59" fill="none" xmlns="http://www.w3.org/2000/svg">
<path fill-rule="evenodd" clip-rule="evenodd" d="M16.7173 0H43.759C45.8574 0 47.9353 0.413313 49.874 1.21634C51.8126 2.01937 53.5742 3.19639 55.058 4.68019C56.5418 6.16399 57.7188 7.92552 58.5218 9.8642C59.3248 11.8029 59.7382 13.8808 59.7382 15.9792V43.0208C59.7382 45.1192 59.3248 47.1971 58.5218 49.1358C57.7188 51.0745 56.5418 52.836 55.058 54.3198C53.5742 55.8036 51.8126 56.9806 49.874 57.7837C47.9353 58.5867 45.8574 59 43.759 59H16.7173C12.4794 59 8.41502 57.3165 5.41835 54.3198C3.93455 52.836 2.75753 51.0745 1.9545 49.1358C1.15147 47.1971 0.738159 45.1192 0.738159 43.0208V15.9792C0.738159 11.7412 2.42167 7.67686 5.41835 4.68019C8.41502 1.68351 12.4794 0 16.7173 0ZM53.3197 52.5815C55.8553 50.0459 57.2798 46.6068 57.2798 43.0208V15.9792C57.2798 12.3932 55.8553 8.95414 53.3197 6.41849C50.784 3.88285 47.3449 2.45833 43.759 2.45833H16.7173C13.1314 2.45833 9.6923 3.88285 7.15665 6.41849C4.62101 8.95414 3.19649 12.3932 3.19649 15.9792V43.0208C3.19649 46.6068 4.62101 50.0459 7.15665 52.5815C9.6923 55.1172 13.1314 56.5417 16.7173 56.5417H43.759C47.3449 56.5417 50.784 55.1172 53.3197 52.5815ZM46.5699 14.0201C46.8221 14.0629 47.0578 14.1733 47.2514 14.3392C47.4445 14.5047 47.5886 14.7193 47.6681 14.9598C47.7477 15.2004 47.7597 15.4579 47.703 15.7047L41.3608 43.0749C41.2659 43.4936 41.062 43.8804 40.7695 44.1967C40.477 44.513 40.1061 44.7477 39.6937 44.8775C39.4413 44.9585 39.1777 44.9998 38.9124 45C38.3071 44.999 37.7231 44.7785 37.2702 44.38L30.9937 38.9301L27.0375 43.0005C26.6926 43.3581 26.2472 43.6044 25.7593 43.7075C25.2714 43.8106 24.7634 43.7657 24.3016 43.5786C23.839 43.3948 23.4427 43.0774 23.1642 42.6676C22.8856 42.2577 22.7375 41.7743 22.7391 41.28V32.2046L14.5345 30.6066C14.0619 30.5151 13.632 30.2738 13.3097 29.919C12.9873 29.5642 12.7898 29.1151 12.747 28.6393C12.7041 28.1635 12.8183 27.6869 13.0722 27.281C13.3261 26.8751 13.706 26.5621 14.1548 26.389L45.8202 14.0958C46.0585 14.0034 46.3177 13.9772 46.5699 14.0201ZM23.7 29.8641L37.6984 19.9192L15.9501 28.3559L23.7 29.8641ZM25.2391 33.9205V41.28L29.1125 37.2902L25.2391 33.9205ZM25.9969 31.2824L38.9155 42.52L44.5905 18.0623L25.9969 31.2824Z" fill="#E0FD60"/>
</svg>
