<svg width="60" height="59" viewBox="0 0 60 59" fill="none" xmlns="http://www.w3.org/2000/svg">
<path fill-rule="evenodd" clip-rule="evenodd" d="M16.4555 0H43.4972C45.5956 0 47.6734 0.413313 49.6121 1.21634C51.5508 2.01937 53.3123 3.19639 54.7961 4.68019C56.2799 6.16399 57.4569 7.92552 58.26 9.8642C59.063 11.8029 59.4763 13.8808 59.4763 15.9792V43.0208C59.4763 45.1192 59.063 47.1971 58.26 49.1358C57.4569 51.0745 56.2799 52.836 54.7961 54.3198C53.3123 55.8036 51.5508 56.9806 49.6121 57.7837C47.6734 58.5867 45.5956 59 43.4972 59H16.4555C12.2175 59 8.15318 57.3165 5.15651 54.3198C3.6727 52.836 2.49569 51.0745 1.69266 49.1358C0.889632 47.1971 0.476318 45.1192 0.476318 43.0208V15.9792C0.476318 11.7412 2.15983 7.67686 5.15651 4.68019C8.15318 1.68351 12.2175 0 16.4555 0ZM53.0578 52.5815C55.5935 50.0459 57.018 46.6068 57.018 43.0208V15.9792C57.018 12.3932 55.5935 8.95414 53.0578 6.41849C50.5222 3.88285 47.0831 2.45833 43.4972 2.45833H16.4555C12.8695 2.45833 9.43046 3.88285 6.89481 6.41849C4.35916 8.95414 2.93465 12.3932 2.93465 15.9792V43.0208C2.93465 46.6068 4.35916 50.0459 6.89481 52.5815C9.43046 55.1172 12.8695 56.5417 16.4555 56.5417H43.4972C47.0831 56.5417 50.5222 55.1172 53.0578 52.5815ZM30.4763 23C30.4763 25.1811 29.4638 27.0739 27.4763 28C30.2013 28.7494 31.4763 30.2888 31.4763 33C31.4763 37.3866 27.5013 40 23.4763 40H12.4763V18H22.4763C26.2701 18 30.4763 18.6987 30.4763 23ZM21.4763 22H17.4763V27H22.4763C24.2138 27 25.4763 25.8338 25.4763 24C25.4763 22.0138 23.2326 22 21.4763 22ZM17.4763 36H22.4763C24.4576 36 26.4763 35.1811 26.4763 33C26.4763 30.7884 24.6201 30 22.4763 30H17.4763V36ZM36.4763 21H44.4763V19H36.4763V21ZM40.4763 24C45.5076 24 48.4763 27.3758 48.4763 32C48.4763 32.0856 48.4781 32.1903 48.4801 32.3017C48.4844 32.5468 48.4892 32.824 48.4763 33H36.4763C36.4763 35.504 37.8951 37 40.4763 37C41.8138 37 44.0576 36.3343 44.4763 35H48.4763C47.2826 38.5763 44.3076 40 40.4763 40C35.4138 40 32.4763 36.8679 32.4763 32C32.4763 27.3088 35.5888 24 40.4763 24ZM40.4763 27C38.3638 27 36.6201 27.9468 36.4763 30H44.4763C44.2888 27.9286 42.6888 27 40.4763 27Z" fill="#E0FD60"/>
</svg>
