<svg width="59" height="59" viewBox="0 0 59 59" fill="none" xmlns="http://www.w3.org/2000/svg">
<path d="M29.5 15.9792C26.8258 15.9792 24.2117 16.7721 21.9882 18.2578C19.7647 19.7435 18.0317 21.8552 17.0084 24.3258C15.985 26.7964 15.7173 29.515 16.239 32.1378C16.7607 34.7606 18.0484 37.1698 19.9393 39.0607C21.8302 40.9516 24.2394 42.2393 26.8622 42.761C29.485 43.2827 32.2036 43.015 34.6742 41.9916C37.1448 40.9683 39.2565 39.2353 40.7422 37.0118C42.2278 34.7883 43.0208 32.1742 43.0208 29.5C43.0208 25.9141 41.5963 22.475 39.0607 19.9393C36.525 17.4037 33.0859 15.9792 29.5 15.9792ZM29.5 40.5625C27.312 40.5625 25.1732 39.9137 23.354 38.6981C21.5348 37.4826 20.1169 35.7548 19.2796 33.7334C18.4423 31.712 18.2232 29.4877 18.6501 27.3418C19.0769 25.1959 20.1305 23.2248 21.6776 21.6776C23.2248 20.1305 25.1959 19.0769 27.3418 18.6501C29.4877 18.2232 31.712 18.4423 33.7334 19.2796C35.7548 20.1169 37.4826 21.5348 38.6981 23.354C39.9137 25.1732 40.5625 27.312 40.5625 29.5C40.5625 32.434 39.397 35.2477 37.3224 37.3224C35.2477 39.397 32.434 40.5625 29.5 40.5625ZM43.0208 0H15.9792C11.7412 0 7.67686 1.68351 4.68019 4.68019C1.68351 7.67686 0 11.7412 0 15.9792V43.0208C0 45.1192 0.413313 47.1971 1.21634 49.1358C2.01937 51.0745 3.19639 52.836 4.68019 54.3198C7.67686 57.3165 11.7412 59 15.9792 59H43.0208C45.1192 59 47.1971 58.5867 49.1358 57.7837C51.0745 56.9806 52.836 55.8036 54.3198 54.3198C55.8036 52.836 56.9806 51.0745 57.7837 49.1358C58.5867 47.1971 59 45.1192 59 43.0208V15.9792C59 13.8808 58.5867 11.8029 57.7837 9.8642C56.9806 7.92552 55.8036 6.16399 54.3198 4.68019C52.836 3.19639 51.0745 2.01937 49.1358 1.21634C47.1971 0.413313 45.1192 0 43.0208 0ZM56.5417 43.0208C56.5417 46.6068 55.1172 50.0459 52.5815 52.5815C50.0459 55.1172 46.6068 56.5417 43.0208 56.5417H15.9792C12.3932 56.5417 8.95414 55.1172 6.41849 52.5815C3.88285 50.0459 2.45833 46.6068 2.45833 43.0208V15.9792C2.45833 12.3932 3.88285 8.95414 6.41849 6.41849C8.95414 3.88285 12.3932 2.45833 15.9792 2.45833H43.0208C46.6068 2.45833 50.0459 3.88285 52.5815 6.41849C55.1172 8.95414 56.5417 12.3932 56.5417 15.9792V43.0208ZM47.9375 13.5208C47.9375 14.007 47.7933 14.4823 47.5232 14.8866C47.2531 15.2909 46.8691 15.606 46.4199 15.792C45.9707 15.9781 45.4764 16.0268 44.9996 15.9319C44.5227 15.8371 44.0847 15.6029 43.7409 15.2591C43.3971 14.9153 43.1629 14.4773 43.0681 14.0004C42.9732 13.5236 43.0219 13.0293 43.208 12.5801C43.394 12.1309 43.7091 11.7469 44.1134 11.4768C44.5177 11.2067 44.993 11.0625 45.4792 11.0625C46.1312 11.0625 46.7564 11.3215 47.2175 11.7825C47.6785 12.2436 47.9375 12.8688 47.9375 13.5208Z" fill="#E0FD60"/>
</svg>
