<svg width="121" height="49" viewBox="0 0 121 49" fill="none" xmlns="http://www.w3.org/2000/svg">
<path d="M26.5312 16.1875H29.6719L22.9219 34H19.3125L12.6094 16.1875H15.75L21.1875 30.9531L26.5312 16.1875ZM32.9531 34V16.1875H35.9062V34H32.9531ZM55.875 34H52.4531L47.3906 26.9688L42.4219 34H39L45.7031 24.9062L39.4219 16.1875H42.8906L47.4844 22.7031L52.125 16.1875H55.4531L49.2188 24.8125L55.875 34ZM58.2188 34V30.3438H61.875V34H58.2188ZM72.9844 34.2344C68.3906 34.2344 65.4844 31.375 65.4844 26.9688V16.1875H68.4375V26.9219C68.4375 29.8281 70.1719 31.6094 72.9844 31.6094C75.7969 31.6094 77.5312 29.8281 77.5312 26.9219V16.1875H80.4844V26.9688C80.4844 31.375 77.5781 34.2344 72.9844 34.2344ZM85.5938 34V16.1875H88.5469V34H85.5938ZM108.516 34H105.094L100.031 26.9688L95.0625 34H91.6406L98.3438 24.9062L92.0625 16.1875H95.5312L100.125 22.7031L104.766 16.1875H108.094L101.859 24.8125L108.516 34Z" fill="#EBEAE8"/>
<rect x="1.5" y="1.5" width="118" height="46" stroke="#E0FD60" stroke-width="3"/>
</svg>
